<svg version="1.1" id="Layer_1" xmlns="http://www.w3.org/2000/svg" xmlns:xlink="http://www.w3.org/1999/xlink" x="0px" y="0px"
	 width="100%" viewBox="0 0 200 200" enable-background="new 0 0 200 200" xml:space="preserve">
<path fill="#020101" opacity="1.000000" stroke="none" 
	d="
M1.000000,86.000000 
	C1.000000,57.682777 1.000000,29.365553 1.000000,1.024164 
	C67.612640,1.024164 134.225296,1.024164 200.918976,1.024164 
	C200.918976,67.574661 200.918976,134.149445 200.918976,200.862122 
	C134.333511,200.862122 67.666801,200.862122 1.000000,200.862122 
	C1.000000,172.905609 1.000000,144.921463 1.376794,116.244232 
	C2.146392,116.055351 2.790985,116.512199 2.895975,117.070511 
	C8.908202,149.042770 26.695225,171.620255 56.746029,184.248230 
	C63.437634,187.060196 70.446556,189.116119 77.858482,188.593216 
	C36.419861,172.985626 18.028570,138.601303 16.174324,110.048103 
	C13.141163,63.341003 35.267990,31.880770 77.289360,12.869001 
	C71.551727,13.602695 65.794296,14.405048 60.445396,16.337919 
	C30.103321,27.302280 11.489769,48.812160 3.870807,80.062996 
	C3.361707,82.151184 1.977295,84.025963 1.000000,86.000000 
M163.598892,165.105789 
	C187.507462,143.022171 197.002197,115.943054 190.994522,83.900436 
	C182.481308,38.494213 136.162933,7.876113 91.022308,17.462549 
	C43.868053,27.476618 13.969569,73.184586 24.512949,119.140205 
	C39.001751,182.292801 112.871597,207.048813 163.598892,165.105789 
z"/>
<path fill="#F11E7B" opacity="1.000000" stroke="none" 
	d="
M1.000000,86.468658 
	C1.977295,84.025963 3.361707,82.151184 3.870807,80.062996 
	C11.489769,48.812160 30.103321,27.302280 60.445396,16.337919 
	C65.794296,14.405048 71.551727,13.602695 77.289360,12.869001 
	C35.267990,31.880770 13.141163,63.341003 16.174324,110.048103 
	C18.028570,138.601303 36.419861,172.985626 77.858482,188.593216 
	C70.446556,189.116119 63.437634,187.060196 56.746029,184.248230 
	C26.695225,171.620255 8.908202,149.042770 2.895975,117.070511 
	C2.790985,116.512199 2.146392,116.055351 1.376794,115.775574 
	C1.000000,106.312439 1.000000,96.624878 1.000000,86.468658 
z"/>
<path fill="#F8F8F8" opacity="1.000000" stroke="none" 
	d="
M163.333740,165.340088 
	C112.871597,207.048813 39.001751,182.292801 24.512949,119.140205 
	C13.969569,73.184586 43.868053,27.476618 91.022308,17.462549 
	C136.162933,7.876113 182.481308,38.494213 190.994522,83.900436 
	C197.002197,115.943054 187.507462,143.022171 163.333740,165.340088 
M159.124496,94.499985 
	C159.124496,82.425613 159.124496,70.351250 159.124496,58.433380 
	C123.896843,58.433380 89.478722,58.433380 54.911949,58.433380 
	C54.911949,81.565125 54.911949,104.358475 54.911949,127.683502 
	C66.317070,127.683502 77.540024,127.683502 89.217087,127.683502 
	C89.217087,139.459351 89.217087,150.709900 89.217087,162.115204 
	C101.236504,162.115204 112.784653,162.115204 124.799927,162.115204 
	C124.799927,150.520905 124.799927,139.274551 124.799927,127.491119 
	C136.470032,127.491119 147.679550,127.491119 159.127014,127.491119 
	C159.127014,116.463936 159.127014,105.981956 159.124496,94.499985 
M34.712467,71.222618 
	C23.231646,100.101624 29.429770,134.858643 49.621582,153.992523 
	C51.140450,152.565567 52.663414,151.134766 54.155643,149.732849 
	C29.834764,121.559250 29.101503,81.253670 53.967022,52.396507 
	C52.477108,50.992912 50.982983,49.585358 48.480808,47.228153 
	C43.750736,55.383320 39.365620,62.943737 34.712467,71.222618 
M68.822922,40.235485 
	C99.437225,22.505194 128.426239,25.686577 156.013641,46.975792 
	C157.601608,45.702061 159.210266,44.411716 160.845016,43.100445 
	C126.029449,11.177240 76.840752,19.697458 55.374378,42.836338 
	C56.562271,44.448109 57.737457,46.042637 58.845230,47.545692 
	C62.349216,44.978241 65.290962,42.822754 68.822922,40.235485 
M182.780548,76.824814 
	C179.113510,66.028786 173.774460,56.243561 166.199524,48.280888 
	C164.253967,49.784393 162.679550,51.001087 161.134476,52.195103 
	C183.915848,78.140068 187.757187,118.509331 161.447296,149.528290 
	C162.773071,150.947433 164.100006,152.367828 165.846100,154.236908 
	C185.084518,131.346451 191.063751,106.075432 182.780548,76.824814 
M87.461906,177.141006 
	C114.972008,184.035110 139.121048,177.534546 160.973495,159.184174 
	C158.997284,157.354782 157.575882,156.038986 155.985977,154.567200 
	C141.916763,166.586639 125.943039,173.032928 107.541389,173.018356 
	C89.158897,173.003799 73.205048,166.529953 59.949734,155.209061 
	C57.961060,156.649368 56.285290,157.863037 54.521217,159.140656 
	C64.236137,167.883286 74.803719,173.596664 87.461906,177.141006 
z"/>
<path fill="#030303" opacity="1.000000" stroke="none" 
	d="
M159.125763,94.999985 
	C159.127014,105.981956 159.127014,116.463936 159.127014,127.491119 
	C147.679550,127.491119 136.470032,127.491119 124.799927,127.491119 
	C124.799927,139.274551 124.799927,150.520905 124.799927,162.115204 
	C112.784653,162.115204 101.236504,162.115204 89.217087,162.115204 
	C89.217087,150.709900 89.217087,139.459351 89.217087,127.683502 
	C77.540024,127.683502 66.317070,127.683502 54.911949,127.683502 
	C54.911949,104.358475 54.911949,81.565125 54.911949,58.433380 
	C89.478722,58.433380 123.896843,58.433380 159.124496,58.433380 
	C159.124496,70.351250 159.124496,82.425613 159.125763,94.999985 
z"/>
<path fill="#0B0B0B" opacity="1.000000" stroke="none" 
	d="
M34.846485,70.863388 
	C39.365620,62.943737 43.750736,55.383320 48.480808,47.228153 
	C50.982983,49.585358 52.477108,50.992912 53.967022,52.396507 
	C29.101503,81.253670 29.834764,121.559250 54.155643,149.732849 
	C52.663414,151.134766 51.140450,152.565567 49.621582,153.992523 
	C29.429770,134.858643 23.231646,100.101624 34.846485,70.863388 
z"/>
<path fill="#0B0B0B" opacity="1.000000" stroke="none" 
	d="
M68.527817,40.451378 
	C65.290962,42.822754 62.349216,44.978241 58.845230,47.545692 
	C57.737457,46.042637 56.562271,44.448109 55.374378,42.836338 
	C76.840752,19.697458 126.029449,11.177240 160.845016,43.100445 
	C159.210266,44.411716 157.601608,45.702061 156.013641,46.975792 
	C128.426239,25.686577 99.437225,22.505194 68.527817,40.451378 
z"/>
<path fill="#0B0B0B" opacity="1.000000" stroke="none" 
	d="
M182.882996,77.211487 
	C191.063751,106.075432 185.084518,131.346451 165.846100,154.236908 
	C164.100006,152.367828 162.773071,150.947433 161.447296,149.528290 
	C187.757187,118.509331 183.915848,78.140068 161.134476,52.195103 
	C162.679550,51.001087 164.253967,49.784393 166.199524,48.280888 
	C173.774460,56.243561 179.113510,66.028786 182.882996,77.211487 
z"/>
<path fill="#0B0B0B" opacity="1.000000" stroke="none" 
	d="
M87.060471,177.059662 
	C74.803719,173.596664 64.236137,167.883286 54.521217,159.140656 
	C56.285290,157.863037 57.961060,156.649368 59.949734,155.209061 
	C73.205048,166.529953 89.158897,173.003799 107.541389,173.018356 
	C125.943039,173.032928 141.916763,166.586639 155.985977,154.567200 
	C157.575882,156.038986 158.997284,157.354782 160.973495,159.184174 
	C139.121048,177.534546 114.972008,184.035110 87.060471,177.059662 
z"/>
</svg>